#N canvas 1006 89 461 375 10;
#N canvas 1324 139 450 300 renoise-MIDI-control 0;
#X obj 33 220 unpack;
#X obj 33 243 noteout 1;
#X msg 72 126 2 100;
#X msg 33 103 1 100;
#X msg 111 149 12 100;
#X obj 33 25 r renoise;
#X obj 150 106 print renoise-MIDI-control : unknown command;
#X obj 33 78 route play stop next;
#X connect 0 0 1 0;
#X connect 0 1 1 1;
#X connect 2 0 0 0;
#X connect 3 0 0 0;
#X connect 4 0 0 0;
#X connect 5 0 7 0;
#X connect 7 0 3 0;
#X connect 7 1 2 0;
#X connect 7 2 4 0;
#X connect 7 3 6 0;
#X restore 232 243 pd renoise-MIDI-control;
#N canvas 412 631 594 377 test 0;
#X obj 123 36 notein 1;
#X obj 123 214 tgl 15 0 empty empty empty 17 7 0 10 -262144 -1 -1 0
1;
#X obj 123 82 route 36;
#X msg 123 105 1;
#X obj 84 290 print test;
#X obj 123 59 pack a a;
#X msg 205 142 0;
#X obj 205 119 r initBang;
#X obj 84 236 route 0;
#X msg 84 213 1;
#X msg 84 262 ok;
#X msg 123 262 fail;
#X text 188 46 The note C-3 (36) must be played by Renoise before the
stop signal for the test to succeed.;
#X obj 20 152 r test-assert;
#X connect 0 0 5 0;
#X connect 0 1 5 1;
#X connect 1 0 8 1;
#X connect 2 0 3 0;
#X connect 3 0 1 0;
#X connect 5 0 2 0;
#X connect 6 0 1 0;
#X connect 7 0 6 0;
#X connect 8 0 10 0;
#X connect 8 1 11 0;
#X connect 9 0 8 0;
#X connect 10 0 4 0;
#X connect 11 0 4 0;
#X connect 13 0 9 0;
#X restore 232 293 pd test;
#N canvas 1193 542 561 438 test-sequencer 0;
#X msg 113 218 rewind;
#X msg 74 218 next;
#X obj 74 190 t b b b;
#X msg 179 290 next;
#X obj 74 342 outlet;
#X obj 74 53 inlet;
#X obj 74 95 route bang;
#X obj 170 190 lib/qlist-loader 1st-line-not-played_test-seq.seq.txt
;
#X obj 179 264 r test-finished;
#X connect 0 0 4 0;
#X connect 1 0 4 0;
#X connect 2 0 1 0;
#X connect 2 1 1 0;
#X connect 2 2 0 0;
#X connect 3 0 4 0;
#X connect 5 0 6 0;
#X connect 6 0 2 0;
#X connect 6 1 7 0;
#X connect 7 0 4 0;
#X connect 8 0 3 0;
#X restore 24 190 pd test-sequencer;
#X obj 229 85 bng 20 250 50 0 empty empty Launch_test 25 10 0 10 -258113
-1 -1;
#X msg 38 114 load;
#X msg 38 136 save;
#X obj 24 213 qlist;
#X floatatom 229 123 5 0 0 1 duration_between_play_and_next - run-test
, f 5;
#X obj 24 85 bng 20 250 50 0 empty empty Launch_test_sequence 25 10
0 10 -258113 -1 -1;
#N canvas 248 127 435 479 run-test 0;
#X obj 126 53 r run-test;
#X obj 126 329 qlist;
#X obj 160 201 print do-test;
#X msg 143 225 clear \, add initBang bang \, add renoise play \, add
\$1 renoise next \, add 1000 renoise stop, f 23;
#X obj 218 76 tgl 15 1 empty empty ready-for-testing 17 7 0 10 -262144
-1 -1 1 1;
#X obj 153 406 s test-finished;
#X obj 126 174 t b f f b;
#X obj 126 135 spigot;
#X obj 153 354 t b b b;
#X obj 192 379 s test-assert;
#X connect 0 0 7 0;
#X connect 1 1 8 0;
#X connect 3 0 1 0;
#X connect 4 0 7 1;
#X connect 6 0 1 0;
#X connect 6 1 3 0;
#X connect 6 2 2 0;
#X connect 6 3 4 0;
#X connect 7 0 6 0;
#X connect 8 0 5 0;
#X connect 8 1 4 0;
#X connect 8 2 9 0;
#X restore 232 268 pd run-test;
#X connect 2 0 6 0;
#X connect 3 0 7 0;
#X connect 4 0 2 0;
#X connect 5 0 2 0;
#X connect 8 0 2 0;
