#N canvas 1038 107 433 316 10;
#X obj 109 57 bng 20 250 50 0 empty empty Launch_test 25 10 0 10 -258113
-1 -1;
#N canvas 1364 171 450 300 renoise-MIDI-control 0;
#X obj 33 220 unpack;
#X obj 33 243 noteout 1;
#X msg 72 126 2 100;
#X msg 33 103 1 100;
#X msg 111 149 12 100;
#X obj 33 25 r renoise;
#X obj 150 106 print renoise-MIDI-control : unknown command;
#X obj 33 78 route play stop next;
#X connect 0 0 1 0;
#X connect 0 1 1 1;
#X connect 2 0 0 0;
#X connect 3 0 0 0;
#X connect 4 0 0 0;
#X connect 5 0 7 0;
#X connect 7 0 3 0;
#X connect 7 1 2 0;
#X connect 7 2 4 0;
#X connect 7 3 6 0;
#X restore 110 239 pd renoise-MIDI-control;
#N canvas 458 167 465 292 seq 0;
#X obj 148 163 loadbang;
#X obj 39 38 inlet;
#X obj 72 244 outlet;
#X obj 39 99 openpanel;
#X msg 39 122 read \$1;
#X obj 133 98 savepanel;
#X msg 133 121 write \$1;
#X obj 39 61 route load save;
#X msg 148 187 read 1st-line-not-played_transient-fail.seq.txt;
#X connect 0 0 8 0;
#X connect 1 0 7 0;
#X connect 3 0 4 0;
#X connect 4 0 2 0;
#X connect 5 0 6 0;
#X connect 6 0 2 0;
#X connect 7 0 3 0;
#X connect 7 1 5 0;
#X connect 7 2 2 0;
#X connect 8 0 2 0;
#X restore 109 165 pd seq;
#X obj 109 188 qlist;
#X msg 123 86 load;
#X msg 123 108 save;
#N canvas 0 89 594 377 test 0;
#X obj 123 36 notein 1;
#X obj 123 214 tgl 15 0 empty empty empty 17 7 0 10 -262144 -1 -1 0
1;
#X obj 123 82 route 36;
#X obj 39 129 r renoise;
#X obj 39 152 route stop;
#X msg 123 105 1;
#X obj 84 290 print test;
#X obj 123 59 pack a a;
#X msg 205 142 0;
#X obj 205 119 r initBang;
#X obj 84 236 route 0;
#X msg 84 213 1;
#X msg 84 262 ok;
#X msg 123 262 fail;
#X text 188 46 The note C-3 (36) must be played by Renoise before the
stop signal for the test to succeed.;
#X connect 0 0 7 0;
#X connect 0 1 7 1;
#X connect 1 0 10 1;
#X connect 2 0 5 0;
#X connect 3 0 4 0;
#X connect 4 0 11 0;
#X connect 5 0 1 0;
#X connect 7 0 2 0;
#X connect 8 0 1 0;
#X connect 9 0 8 0;
#X connect 10 0 12 0;
#X connect 10 1 13 0;
#X connect 11 0 10 0;
#X connect 12 0 6 0;
#X connect 13 0 6 0;
#X restore 110 262 pd test;
#X connect 0 0 2 0;
#X connect 2 0 3 0;
#X connect 4 0 2 0;
#X connect 5 0 2 0;
