#N canvas 622 417 450 300 10;
#X obj 96 52 inlet;
#X obj 146 225 outlet;
#X obj 96 113 openpanel;
#X msg 96 136 read \$1;
#X obj 190 112 savepanel;
#X msg 190 136 write \$1;
#X obj 96 75 route load save;
#X msg 284 136 read \$1;
#X obj 284 52 loadbang;
#X obj 284 75 symbol \$1;
#X connect 0 0 6 0;
#X connect 2 0 3 0;
#X connect 3 0 1 0;
#X connect 4 0 5 0;
#X connect 5 0 1 0;
#X connect 6 0 2 0;
#X connect 6 1 4 0;
#X connect 6 2 1 0;
#X connect 7 0 1 0;
#X connect 8 0 9 0;
#X connect 9 0 7 0;
